<?xml version="1.0" standalone="no"?>
<!DOCTYPE svg PUBLIC "-//W3C//DTD SVG 20010904//EN"
 "http://www.w3.org/TR/2001/REC-SVG-20010904/DTD/svg10.dtd">
<svg version="1.0" xmlns="http://www.w3.org/2000/svg"
 width="720.000000pt" height="720.000000pt" viewBox="0 0 720.000000 720.000000"
 preserveAspectRatio="xMidYMid meet">
<metadata>
Created by potrace 1.11, written by Peter Selinger 2001-2013
</metadata>
<g transform="translate(0.000000,720.000000) scale(0.100000,-0.100000)"
fill="#000000" stroke="none">
<path d="M0 3600 l0 -3600 3600 0 3600 0 0 3600 0 3600 -3600 0 -3600 0 0
-3600z m5379 2424 c27 -22 31 -33 31 -73 0 -39 -47 -250 -80 -356 -5 -16 -23
-88 -41 -160 -49 -203 -64 -223 -209 -285 -51 -22 -100 -46 -109 -53 -9 -8
-23 -16 -31 -19 -8 -3 -43 -27 -77 -52 -168 -127 -307 -344 -346 -541 -14 -73
-20 -344 -8 -385 5 -19 17 -62 26 -95 25 -87 97 -230 155 -305 103 -133 105
-137 103 -209 -1 -49 -69 -336 -267 -1126 -147 -583 -276 -1088 -287 -1123
-17 -52 -28 -68 -62 -90 l-41 -27 -1390 -3 c-765 -2 -1420 0 -1455 3 -119 12
-138 66 -71 195 22 41 47 93 57 115 10 22 58 119 107 215 49 96 119 236 156
310 68 136 182 365 210 421 8 17 129 258 269 537 314 628 359 718 429 862 31
63 73 143 94 178 21 34 38 65 38 68 0 3 45 97 100 209 55 111 100 204 100 208
0 3 18 37 40 76 75 131 80 142 80 150 0 12 63 140 111 226 21 39 55 104 74
145 20 41 41 84 47 95 6 10 105 206 220 434 115 228 216 423 224 432 45 50 19
49 926 49 l846 0 31 -26z m141 -1068 c97 -19 119 -26 214 -71 95 -45 225 -164
279 -255 105 -176 126 -398 55 -597 -27 -75 -70 -137 -161 -230 -101 -104
-188 -157 -317 -192 -161 -45 -366 -10 -517 88 -116 76 -250 242 -285 354 -23
76 -38 167 -38 232 0 70 32 221 50 239 6 6 10 17 10 26 0 22 83 147 132 198
96 99 243 178 385 206 90 18 105 18 193 2z m-275 -1596 c10 -8 326 -5 400 4
78 9 122 8 143 -3 27 -14 86 -103 139 -207 113 -221 129 -372 64 -582 -10 -34
-43 -95 -88 -161 -29 -44 -253 -271 -268 -271 -5 -1 -28 -19 -50 -40 -22 -22
-45 -40 -51 -40 -6 0 -17 -7 -25 -16 -12 -15 -203 -144 -213 -144 -2 0 -31
-17 -63 -38 -56 -38 -87 -55 -243 -141 -41 -22 -82 -45 -90 -51 -37 -25 -168
-89 -201 -98 -43 -11 -66 -1 -80 36 -11 30 -19 -4 98 462 47 190 89 363 93
385 5 22 17 74 29 115 11 41 28 107 37 145 65 285 150 595 170 622 12 15 32
30 45 33 31 7 141 0 154 -10z"/>
</g>
</svg>
